<?xml version="1.0" standalone="no"?>
<!DOCTYPE svg PUBLIC "-//W3C//DTD SVG 20010904//EN"
 "http://www.w3.org/TR/2001/REC-SVG-20010904/DTD/svg10.dtd">
<svg version="1.0" xmlns="http://www.w3.org/2000/svg"
 width="1400.000000pt" height="352.000000pt" viewBox="0 0 1400.000000 352.000000"
 preserveAspectRatio="xMidYMid meet">

<g transform="translate(0.000000,352.000000) scale(0.100000,-0.100000)"
fill="#000000" stroke="none">
<path d="M5100 3415 c-275 -26 -843 -130 -1171 -214 -693 -177 -1572 -484
-1989 -696 -128 -66 -174 -98 -167 -118 9 -29 61 -14 237 69 485 227 947 393
1590 569 556 153 805 206 1255 269 445 62 713 77 788 44 58 -26 49 -46 -63
-139 -189 -157 -466 -302 -960 -500 -200 -80 -200 -81 -185 -126 10 -29 519
149 738 258 303 151 576 341 623 431 20 38 18 92 -4 111 -49 45 -87 51 -327
53 -134 2 -286 -3 -365 -11z"/>
<path d="M9312 3210 c-210 -22 -491 -108 -861 -267 -308 -132 -939 -528 -1251
-786 -112 -93 -317 -294 -390 -382 -81 -99 -168 -236 -192 -303 -28 -78 -35
-199 -14 -239 33 -65 161 -140 299 -174 69 -18 123 -22 348 -26 297 -6 477 4
729 42 320 49 564 107 706 170 48 21 55 27 44 40 -20 25 -80 18 -264 -30 -343
-89 -722 -138 -1081 -139 -297 0 -459 27 -568 96 -59 37 -77 71 -77 140 0 107
101 262 321 492 308 322 753 636 1324 934 323 168 457 224 687 286 133 36 353
69 415 63 129 -13 182 -81 162 -209 -11 -66 -78 -234 -124 -309 -60 -98 -96
-188 -85 -210 40 -75 173 67 286 306 125 263 85 429 -119 490 -59 18 -197 24
-295 15z"/>
<path d="M3394 2838 c-26 -12 -33 -27 -94 -198 -46 -131 -326 -860 -332 -865
-2 -2 -84 -8 -183 -14 -242 -16 -265 -19 -265 -41 0 -36 66 -50 236 -49 86 0
158 -2 160 -4 2 -1 1 -13 -2 -25 -5 -19 -11 -21 -48 -16 -26 4 -47 1 -58 -8
-18 -13 -228 -493 -345 -786 -89 -224 -185 -498 -191 -545 -5 -42 18 -87 45
-87 43 0 133 90 133 134 0 9 24 58 54 109 30 51 63 112 75 137 84 183 262 600
353 825 59 148 112 272 116 276 4 4 117 15 252 24 361 23 359 23 370 30 19 11
10 35 -15 41 -13 3 -147 1 -297 -5 -150 -5 -274 -8 -276 -6 -3 2 84 224 192
492 199 497 214 544 180 577 -18 18 -30 19 -60 4z m-630 -1554 c-36 -87 -89
-216 -117 -286 -29 -70 -58 -128 -64 -128 -17 0 -16 6 6 65 68 179 228 522
238 511 2 -1 -27 -74 -63 -162z"/>
<path d="M12198 2473 c-38 -44 -100 -180 -188 -413 -43 -113 -99 -253 -125
-312 -110 -255 -112 -385 -7 -416 53 -16 106 -4 178 40 100 60 204 166 204
207 0 14 -37 24 -55 14 -8 -5 -51 -43 -94 -85 -58 -56 -89 -79 -114 -83 -20
-4 -40 -4 -46 0 -31 18 6 184 100 447 60 168 86 232 182 443 25 55 48 110 51
121 13 45 -54 73 -86 37z"/>
<path d="M10801 2443 c-34 -41 -121 -206 -121 -229 0 -22 -44 -34 -144 -40
-103 -6 -133 -21 -103 -51 13 -13 38 -19 97 -21 55 -3 80 -8 80 -16 0 -19 -29
-101 -118 -326 -115 -295 -124 -355 -62 -415 28 -26 35 -28 100 -27 114 3 179
35 326 159 55 46 78 86 72 125 -5 37 -37 23 -95 -42 -67 -74 -132 -115 -215
-137 -76 -20 -93 -13 -101 40 -9 64 61 269 167 486 25 52 46 102 46 110 1 40
21 46 145 46 127 1 165 11 165 44 0 16 -10 20 -77 24 -43 3 -96 5 -118 4 -30
-2 -40 2 -43 15 -2 9 15 63 38 119 46 113 50 162 14 167 -15 2 -32 -9 -53 -35z"/>
<path d="M9195 1736 c-93 -49 -140 -89 -202 -173 -69 -94 -77 -131 -35 -173
22 -22 40 -30 66 -30 64 0 136 21 187 56 28 19 53 34 55 34 2 0 4 -11 4 -25 0
-104 204 -78 308 40 39 45 65 106 55 132 -9 22 -51 7 -101 -35 -152 -129 -189
-133 -165 -18 13 61 4 76 -41 76 -25 0 -50 -15 -116 -70 -82 -70 -118 -84
-112 -45 3 22 114 132 156 154 24 13 31 13 71 -7 62 -30 79 -21 72 37 -10 89
-86 107 -202 47z"/>
<path d="M9877 1752 c-10 -10 -17 -23 -17 -29 0 -6 -19 -39 -43 -74 -90 -133
-143 -245 -131 -281 3 -12 15 -18 33 -18 32 0 75 42 116 115 49 87 208 226
231 203 3 -4 9 -22 13 -40 5 -24 14 -35 35 -43 24 -8 31 -6 47 13 10 13 21 39
25 59 10 54 -20 78 -94 77 -32 -1 -72 -8 -90 -18 -36 -18 -52 -14 -52 13 0 40
-45 54 -73 23z"/>
<path d="M4729 1741 c-13 -10 -57 -82 -97 -159 -131 -254 -104 -308 76 -154
75 65 173 134 180 127 3 -3 -11 -29 -31 -60 -44 -65 -45 -79 -12 -101 32 -21
78 -6 137 45 82 71 190 151 204 151 18 0 18 -7 -1 -60 -22 -61 -20 -117 4
-130 91 -48 327 71 334 167 3 48 -31 40 -121 -28 -113 -85 -135 -74 -87 43 44
109 29 151 -47 129 -41 -13 -128 -58 -180 -93 -35 -24 -38 -23 -38 15 0 18 -5
38 -12 45 -32 32 -119 1 -225 -79 -57 -43 -63 -39 -38 31 20 57 19 93 -3 114
-18 15 -20 15 -43 -3z"/>
<path d="M4135 1711 c-76 -19 -167 -91 -196 -156 -38 -83 -13 -172 56 -201 50
-21 170 -18 248 6 107 33 219 129 233 200 11 54 -19 48 -97 -18 -129 -110
-241 -152 -307 -118 -32 17 -52 43 -52 69 0 12 16 15 73 14 111 0 186 40 206
110 10 35 -8 87 -34 97 -21 8 -91 6 -130 -3z m55 -86 c0 -17 -50 -45 -80 -45
-29 0 -25 27 8 44 35 20 72 20 72 1z"/>
<path d="M11280 1711 c-155 -48 -250 -195 -194 -302 42 -83 230 -93 373 -20
84 43 171 140 171 191 0 34 -31 23 -95 -32 -125 -107 -219 -148 -294 -128 -41
11 -71 41 -71 72 0 16 10 18 78 18 124 0 206 54 206 136 0 51 -31 74 -98 73
-28 0 -62 -4 -76 -8z m60 -86 c0 -15 -49 -45 -74 -45 -27 0 -29 22 -5 41 29
23 79 25 79 4z"/>
<path d="M435 1629 c-249 -12 -316 -20 -337 -41 -24 -24 -23 -55 1 -68 26 -13
444 -13 494 1 43 12 64 47 47 79 -11 20 -42 41 -57 38 -4 -1 -71 -5 -148 -9z"/>
<path d="M13755 1603 c-92 -2 -333 -21 -371 -28 -11 -3 -26 -16 -34 -30 -12
-22 -11 -27 5 -45 17 -19 30 -20 239 -20 122 0 238 5 258 10 52 15 73 57 46
92 -17 21 -36 24 -143 21z"/>
</g>
</svg>
